# xmcd
#
# Track frame offsets: 
#        150
#        26025
#        56805
#        71025
#        86883
#        104618
#        118563
#        134876
#        153899
#        172218
#        190476
#        202161
#        223561
#        241609
#        256534
#        278449
#        303475
#        321928
#        342114
#
# Disc length: 4744 seconds
#
# Revision: 0
# Processed by: cddbd v1.5.2PL0 Copyright (c) Steve Scherf et al.
# Submitted via: ExactAudioCopy v0.99pb5
#
DISCID=23128613
DTITLE=Barry Manilow - USA
DYEAR=2001
DGENRE=Blues
TTITLE0=Copacabana
TTITLE1=Could it be Magic
TTITLE2=Daybreak
TTITLE3=Even Now
TTITLE4=It´s a Miracle
TTITLE5=Jump Shout Boogie
TTITLE6=This One´s for You
TTITLE7=All the Time
TTITLE8=Could it be Magic II
TTITLE9=Becauso it´s Christmas
TTITLE10=I am Your Child
TTITLE11=New York City Rhytm
TTITLE12=Let Me Go
TTITLE13=All the Time II
TTITLE14=Rain
TTITLE15=If I Should Love Again
TTITLE16=Some Kind of Friend
TTITLE17=I Made It Through The Rain
TTITLE18=One Voice
EXTD=
EXTT0=
EXTT1=
EXTT2=
EXTT3=
EXTT4=
EXTT5=
EXTT6=
EXTT7=
EXTT8=
EXTT9=
EXTT10=
EXTT11=
EXTT12=
EXTT13=
EXTT14=
EXTT15=
EXTT16=
EXTT17=
EXTT18=
PLAYORDER=
